<?xml version="1.0" encoding="UTF-8"?>
<svg width="700pt" height="700pt" version="1.1" viewBox="0 0 700 700" xmlns="http://www.w3.org/2000/svg" xmlns:xlink="http://www.w3.org/1999/xlink">
 <defs>
  <symbol id="v" overflow="visible">
   <path d="m18.031-1.0781c-0.92969 0.48047-1.8984 0.83984-2.9062 1.0781-1 0.25-2.0547 0.375-3.1562 0.375-3.2617 0-5.8516-0.91016-7.7656-2.7344-1.9062-1.8203-2.8594-4.3008-2.8594-7.4375 0-3.1328 0.95312-5.6133 2.8594-7.4375 1.9141-1.832 4.5039-2.75 7.7656-2.75 1.1016 0 2.1562 0.125 3.1562 0.375 1.0078 0.24219 1.9766 0.60547 2.9062 1.0938v4.0625c-0.9375-0.64453-1.8672-1.1133-2.7812-1.4062-0.90625-0.30078-1.8594-0.45312-2.8594-0.45312-1.8125 0-3.2344 0.57812-4.2656 1.7344s-1.5469 2.75-1.5469 4.7812 0.51562 3.625 1.5469 4.7812 2.4531 1.7344 4.2656 1.7344c1 0 1.9531-0.14844 2.8594-0.45312 0.91406-0.30078 1.8438-0.76953 2.7812-1.4062z"/>
  </symbol>
  <symbol id="b" overflow="visible">
   <path d="m13.203-10.719c-0.41797-0.1875-0.82812-0.32812-1.2344-0.42188s-0.82031-0.14062-1.2344-0.14062c-1.2109 0-2.1406 0.39062-2.7969 1.1719-0.64844 0.77344-0.96875 1.8828-0.96875 3.3281v6.7812h-4.7031v-14.719h4.7031v2.4219c0.60156-0.96875 1.2969-1.6719 2.0781-2.1094 0.78906-0.44531 1.7344-0.67188 2.8281-0.67188 0.15625 0 0.32031 0.011719 0.5 0.03125 0.1875 0.011719 0.45703 0.039063 0.8125 0.078125z"/>
  </symbol>
  <symbol id="a" overflow="visible">
   <path d="m16.953-7.4062v1.3438h-11c0.11328 1.1055 0.50781 1.9336 1.1875 2.4844 0.6875 0.55469 1.6445 0.82812 2.875 0.82812 0.98828 0 2.0039-0.14453 3.0469-0.4375 1.0391-0.28906 2.1094-0.73438 3.2031-1.3281v3.625c-1.1172 0.41797-2.2305 0.73047-3.3438 0.9375-1.1172 0.21875-2.2305 0.32812-3.3438 0.32812-2.6562 0-4.7266-0.67578-6.2031-2.0312-1.4805-1.3516-2.2188-3.25-2.2188-5.6875 0-2.4062 0.72266-4.2969 2.1719-5.6719 1.457-1.375 3.4531-2.0625 5.9844-2.0625 2.3203 0 4.1758 0.69922 5.5625 2.0938 1.3828 1.3984 2.0781 3.2578 2.0781 5.5781zm-4.8281-1.5625c0-0.89453-0.26172-1.6133-0.78125-2.1562-0.52344-0.55078-1.2031-0.82812-2.0469-0.82812-0.91797 0-1.6641 0.26172-2.2344 0.78125-0.5625 0.51172-0.91797 1.2461-1.0625 2.2031z"/>
  </symbol>
  <symbol id="h" overflow="visible">
   <path d="m8.8594-6.625c-0.98047 0-1.7188 0.16797-2.2188 0.5-0.49219 0.33594-0.73438 0.82422-0.73438 1.4688 0 0.59375 0.19531 1.0625 0.59375 1.4062 0.39453 0.33594 0.94531 0.5 1.6562 0.5 0.88281 0 1.6289-0.31641 2.2344-0.95312 0.61328-0.63281 0.92188-1.4297 0.92188-2.3906v-0.53125zm7.1875-1.7812v8.4062h-4.7344v-2.1875c-0.63672 0.89844-1.3516 1.5469-2.1406 1.9531-0.78125 0.40625-1.7422 0.60938-2.875 0.60938-1.5234 0-2.7617-0.44141-3.7188-1.3281-0.94922-0.88281-1.4219-2.0391-1.4219-3.4688 0-1.7188 0.59375-2.9766 1.7812-3.7812 1.1875-0.8125 3.0508-1.2188 5.5938-1.2188h2.7812v-0.375c0-0.73828-0.29688-1.2812-0.89062-1.625-0.58594-0.35156-1.5-0.53125-2.75-0.53125-1 0-1.9375 0.10547-2.8125 0.3125-0.86719 0.19922-1.6719 0.5-2.4219 0.90625v-3.5938c1.0078-0.25 2.0195-0.4375 3.0312-0.5625 1.0195-0.125 2.0391-0.1875 3.0625-0.1875 2.6562 0 4.5703 0.52734 5.75 1.5781 1.1758 1.043 1.7656 2.7422 1.7656 5.0938z"/>
  </symbol>
  <symbol id="d" overflow="visible">
   <path d="m7.4062-18.906v4.1875h4.8438v3.3594h-4.8438v6.25c0 0.67969 0.13281 1.1406 0.40625 1.3906 0.26953 0.24219 0.80469 0.35938 1.6094 0.35938h2.4219v3.3594h-4.0312c-1.8672 0-3.1875-0.38281-3.9688-1.1562-0.77344-0.78125-1.1562-2.0977-1.1562-3.9531v-6.25h-2.3281v-3.3594h2.3281v-4.1875z"/>
  </symbol>
  <symbol id="g" overflow="visible">
   <path d="m12.281-12.562v-7.8906h4.7344v20.453h-4.7344v-2.125c-0.64844 0.86719-1.3594 1.5-2.1406 1.9062-0.78125 0.39453-1.6875 0.59375-2.7188 0.59375-1.8125 0-3.3047-0.71875-4.4688-2.1562-1.168-1.4375-1.75-3.2891-1.75-5.5625 0-2.2695 0.58203-4.125 1.75-5.5625 1.1641-1.4453 2.6562-2.1719 4.4688-2.1719 1.0195 0 1.9219 0.20312 2.7031 0.60938 0.78906 0.40625 1.5078 1.043 2.1562 1.9062zm-3.1094 9.5312c1.0078 0 1.7812-0.36719 2.3125-1.1094 0.53125-0.73828 0.79688-1.8047 0.79688-3.2031 0-1.4062-0.26562-2.4727-0.79688-3.2031-0.53125-0.73828-1.3047-1.1094-2.3125-1.1094-1 0-1.7656 0.37109-2.2969 1.1094-0.52344 0.73047-0.78125 1.7969-0.78125 3.2031 0 1.3984 0.25781 2.4648 0.78125 3.2031 0.53125 0.74219 1.2969 1.1094 2.2969 1.1094z"/>
  </symbol>
  <symbol id="f" overflow="visible">
   <path d="m10.094-3.0312c1.0078 0 1.7812-0.36719 2.3125-1.1094 0.53125-0.73828 0.79688-1.8047 0.79688-3.2031 0-1.4062-0.26562-2.4727-0.79688-3.2031-0.53125-0.73828-1.3047-1.1094-2.3125-1.1094-1.0117 0-1.7891 0.37109-2.3281 1.1094-0.53125 0.74219-0.79688 1.8086-0.79688 3.2031 0 1.3867 0.26562 2.4531 0.79688 3.2031 0.53906 0.74219 1.3164 1.1094 2.3281 1.1094zm-3.125-9.5312c0.64453-0.86328 1.3633-1.5 2.1562-1.9062 0.78906-0.40625 1.6953-0.60938 2.7188-0.60938 1.8125 0 3.3008 0.72656 4.4688 2.1719 1.1641 1.4375 1.75 3.293 1.75 5.5625 0 2.2734-0.58594 4.125-1.75 5.5625-1.168 1.4375-2.6562 2.1562-4.4688 2.1562-1.0234 0-1.9297-0.20312-2.7188-0.60938-0.79297-0.40625-1.5117-1.0352-2.1562-1.8906v2.125h-4.7031v-20.453h4.7031z"/>
  </symbol>
  <symbol id="k" overflow="visible">
   <path d="m0.32812-14.719h4.7031l3.9531 9.9844 3.375-9.9844h4.7031l-6.1875 16.109c-0.625 1.6445-1.3555 2.7891-2.1875 3.4375-0.82422 0.65625-1.9141 0.98438-3.2656 0.98438h-2.7344v-3.0938h1.4844c0.78906 0 1.3672-0.13281 1.7344-0.39062 0.36328-0.25 0.64453-0.70312 0.84375-1.3594l0.14062-0.40625z"/>
  </symbol>
  <symbol id="j" overflow="visible">
   <path d="m10.328-12.031c0.80078 0 1.4062-0.17188 1.8125-0.51562 0.41406-0.35156 0.625-0.875 0.625-1.5625 0-0.67578-0.21094-1.1914-0.625-1.5469-0.40625-0.35156-1.0117-0.53125-1.8125-0.53125h-2.7969v4.1562zm0.17188 8.5938c1.0195 0 1.7852-0.21094 2.2969-0.64062 0.50781-0.4375 0.76562-1.0859 0.76562-1.9531 0-0.85156-0.25781-1.4883-0.76562-1.9062-0.5-0.42578-1.2656-0.64062-2.2969-0.64062h-2.9688v5.1406zm4.7031-7.0625c1.0938 0.3125 1.9375 0.89844 2.5312 1.75 0.59375 0.84375 0.89062 1.8867 0.89062 3.125 0 1.8984-0.64062 3.3086-1.9219 4.2344-1.2812 0.92969-3.2266 1.3906-5.8281 1.3906h-8.4062v-19.625h7.5938c2.7266 0 4.7031 0.41406 5.9219 1.2344 1.2266 0.82422 1.8438 2.1406 1.8438 3.9531 0 0.96094-0.22656 1.7773-0.67188 2.4531-0.44922 0.66797-1.1016 1.1641-1.9531 1.4844z"/>
  </symbol>
  <symbol id="c" overflow="visible">
   <path d="m17.062-8.9688v8.9688h-4.7344v-6.8594c0-1.2695-0.03125-2.1445-0.09375-2.625-0.054687-0.48828-0.14844-0.84766-0.28125-1.0781-0.1875-0.30078-0.4375-0.53516-0.75-0.70312-0.3125-0.17578-0.67188-0.26562-1.0781-0.26562-0.98047 0-1.75 0.38281-2.3125 1.1406-0.5625 0.76172-0.84375 1.8086-0.84375 3.1406v7.25h-4.7031v-14.719h4.7031v2.1562c0.70703-0.86328 1.457-1.5 2.25-1.9062 0.80078-0.40625 1.6875-0.60938 2.6562-0.60938 1.6953 0 2.9844 0.52344 3.8594 1.5625 0.88281 1.043 1.3281 2.5586 1.3281 4.5469z"/>
  </symbol>
  <symbol id="u" overflow="visible">
   <path d="m2.4688-19.625h5.0625v15.797h8.8906v3.8281h-13.953z"/>
  </symbol>
  <symbol id="i" overflow="visible">
   <path d="m2.2656-20.453h4.7031v11.141l5.4219-5.4062h5.4531l-7.1875 6.75 7.7656 7.9688h-5.7031l-5.75-6.1406v6.1406h-4.7031z"/>
  </symbol>
  <symbol id="t" overflow="visible">
   <path d="m2.2656-14.719h4.7031v14.719h-4.7031zm0-5.7344h4.7031v3.8438h-4.7031z"/>
  </symbol>
  <symbol id="s" overflow="visible">
   <path d="m11.953-20.453v3.0938h-2.6094c-0.66797 0-1.1328 0.12109-1.3906 0.35938-0.26172 0.24219-0.39062 0.65625-0.39062 1.25v1.0312h4.0156v3.3594h-4.0156v11.359h-4.7031v-11.359h-2.3438v-3.3594h2.3438v-1.0312c0-1.6016 0.44141-2.7852 1.3281-3.5469 0.89453-0.76953 2.2812-1.1562 4.1562-1.1562z"/>
  </symbol>
  <symbol id="e" overflow="visible">
   <path d="m9.2656-11.719c-1.043 0-1.8398 0.375-2.3906 1.125-0.54297 0.75-0.8125 1.8359-0.8125 3.25 0 1.4062 0.26953 2.4844 0.8125 3.2344 0.55078 0.75 1.3477 1.125 2.3906 1.125 1.0312 0 1.8164-0.375 2.3594-1.125 0.53906-0.75 0.8125-1.8281 0.8125-3.2344 0-1.4141-0.27344-2.5-0.8125-3.25-0.54297-0.75-1.3281-1.125-2.3594-1.125zm0-3.3594c2.5312 0 4.5078 0.6875 5.9375 2.0625 1.4258 1.3672 2.1406 3.2578 2.1406 5.6719 0 2.418-0.71484 4.3086-2.1406 5.6719-1.4297 1.3672-3.4062 2.0469-5.9375 2.0469-2.543 0-4.5312-0.67969-5.9688-2.0469-1.4297-1.3633-2.1406-3.2539-2.1406-5.6719 0-2.4141 0.71094-4.3047 2.1406-5.6719 1.4375-1.375 3.4258-2.0625 5.9688-2.0625z"/>
  </symbol>
  <symbol id="r" overflow="visible">
   <path d="m15.906-12.281c0.59375-0.90625 1.3008-1.5977 2.125-2.0781 0.82031-0.47656 1.7227-0.71875 2.7031-0.71875 1.6875 0 2.9727 0.52344 3.8594 1.5625 0.88281 1.043 1.3281 2.5586 1.3281 4.5469v8.9688h-4.7344v-7.6719c0.007812-0.11328 0.015625-0.23438 0.015625-0.35938 0.007813-0.125 0.015625-0.30078 0.015625-0.53125 0-1.0391-0.15625-1.7969-0.46875-2.2656-0.30469-0.46875-0.79688-0.70312-1.4844-0.70312-0.88672 0-1.5742 0.37109-2.0625 1.1094-0.49219 0.74219-0.74609 1.8047-0.76562 3.1875v7.2344h-4.7188v-7.6719c0-1.6328-0.14062-2.6875-0.42188-3.1562s-0.78125-0.70312-1.5-0.70312c-0.90625 0-1.6055 0.37109-2.0938 1.1094-0.49219 0.74219-0.73438 1.7969-0.73438 3.1719v7.25h-4.7344v-14.719h4.7344v2.1562c0.57031-0.83203 1.2344-1.457 1.9844-1.875 0.75-0.42578 1.5781-0.64062 2.4844-0.64062 1.0195 0 1.9141 0.24609 2.6875 0.73438 0.78125 0.49219 1.375 1.1797 1.7812 2.0625z"/>
  </symbol>
  <symbol id="q" overflow="visible">
   <path d="m17.062-8.9688v8.9688h-4.7344v-6.8281c0-1.2891-0.03125-2.1758-0.09375-2.6562-0.054687-0.48828-0.14844-0.84766-0.28125-1.0781-0.1875-0.30078-0.4375-0.53516-0.75-0.70312-0.3125-0.17578-0.67188-0.26562-1.0781-0.26562-0.98047 0-1.75 0.38281-2.3125 1.1406-0.5625 0.76172-0.84375 1.8086-0.84375 3.1406v7.25h-4.7031v-20.453h4.7031v7.8906c0.70703-0.86328 1.457-1.5 2.25-1.9062 0.80078-0.40625 1.6875-0.60938 2.6562-0.60938 1.6953 0 2.9844 0.52344 3.8594 1.5625 0.88281 1.043 1.3281 2.5586 1.3281 4.5469z"/>
  </symbol>
  <symbol id="p" overflow="visible">
   <path d="m2.4688-19.625h5.6562l7.1406 13.453v-13.453h4.7969v19.625h-5.6562l-7.1406-13.469v13.469h-4.7969z"/>
  </symbol>
  <symbol id="o" overflow="visible">
   <path d="m2.1094-5.7344v-8.9844h4.7188v1.4688c0 0.80469-0.007813 1.8086-0.015625 3.0156v2.4062c0 1.1797 0.03125 2.0273 0.09375 2.5469 0.0625 0.52344 0.16406 0.90234 0.3125 1.1406 0.1875 0.30469 0.4375 0.53906 0.75 0.70312 0.3125 0.16797 0.67188 0.25 1.0781 0.25 0.97656 0 1.75-0.375 2.3125-1.125s0.84375-1.7969 0.84375-3.1406v-7.2656h4.7031v14.719h-4.7031v-2.125c-0.71094 0.85547-1.4648 1.4844-2.2656 1.8906-0.79297 0.40625-1.6641 0.60938-2.6094 0.60938-1.7109 0-3.0078-0.51953-3.8906-1.5625-0.88672-1.0391-1.3281-2.5547-1.3281-4.5469z"/>
  </symbol>
  <symbol id="n" overflow="visible">
   <path d="m2.4688-19.625h8.4062c2.5 0 4.4141 0.55859 5.75 1.6719 1.332 1.1055 2 2.6836 2 4.7344 0 2.0547-0.66797 3.6367-2 4.75-1.3359 1.1055-3.25 1.6562-5.75 1.6562h-3.3438v6.8125h-5.0625zm5.0625 3.6719v5.4688h2.7969c0.97656 0 1.7344-0.23438 2.2656-0.70312 0.53906-0.47656 0.8125-1.1562 0.8125-2.0312s-0.27344-1.5469-0.8125-2.0156c-0.53125-0.47656-1.2891-0.71875-2.2656-0.71875z"/>
  </symbol>
  <symbol id="m" overflow="visible">
   <path d="m2.2656-14.719h4.7031v14.453c0 1.9688-0.47656 3.4727-1.4219 4.5156-0.94922 1.0391-2.3203 1.5625-4.1094 1.5625h-2.3281v-3.0938h0.8125c0.89453 0 1.5078-0.20312 1.8438-0.60938 0.33203-0.39844 0.5-1.1875 0.5-2.375zm0-5.7344h4.7031v3.8438h-4.7031z"/>
  </symbol>
  <symbol id="l" overflow="visible">
   <path d="m14.156-14.266v3.8438c-0.63672-0.4375-1.2773-0.75781-1.9219-0.96875-0.64844-0.21875-1.3125-0.32812-2-0.32812-1.3242 0-2.3516 0.38672-3.0781 1.1562-0.73047 0.77344-1.0938 1.8438-1.0938 3.2188s0.36328 2.4492 1.0938 3.2188c0.72656 0.76172 1.7539 1.1406 3.0781 1.1406 0.72656 0 1.4219-0.10938 2.0781-0.32812 0.66406-0.21875 1.2812-0.53906 1.8438-0.96875v3.8438c-0.74219 0.27344-1.4922 0.47266-2.25 0.60938-0.75 0.13281-1.5078 0.20312-2.2656 0.20312-2.6562 0-4.7344-0.67578-6.2344-2.0312-1.5-1.3633-2.25-3.2578-2.25-5.6875 0-2.4258 0.75-4.3203 2.25-5.6875 1.5-1.3633 3.5781-2.0469 6.2344-2.0469 0.76953 0 1.5312 0.070313 2.2812 0.20312 0.75 0.13672 1.4922 0.33984 2.2344 0.60938z"/>
  </symbol>
 </defs>
 <g>
  <path d="m618.26 192.45c-1.082 3.1484-3.1836 5.8398-5.9766 7.6484-3.0898 7.0273-8.9297 12.477-16.156 15.074-2.7109 1.0195-5.6211 1.4062-8.5039 1.1328-6.6445-0.52734-13.324-0.32812-19.926 0.58984-8.3516 8.6328-18.629 15.164-29.992 19.062-0.5 0.22656-1.0234 0.38672-1.5625 0.48438-4.1875 0.78516-8.3281-1.5703-9.793-5.5703-1.4688-4 0.16797-8.4727 3.8711-10.582 2.7188-1.8047 4.543-4.6836 5.0078-7.9141l-18.309-4.3633c-6.6758 0-16.531 18.848-20.406 31.875-3.6992 13.469-8.6211 26.574-14.699 39.148-0.12891 0.34766-0.30859 0.67578-0.53906 0.96875-9.1016 12.547-2.4219 30.422-2.1016 31.391l43.078 105.59c0.59375 1.5586 0.99219 3.1875 1.1836 4.8477 0.47656 12.078-0.82812 24.16-3.875 35.859 18.953 34.625-3.2852 52.23-6.0312 54.223h-0.37891c-3.418 2.1953-7.9062 1.7031-10.77-1.1836l-23.855-22.617 0.003906 0.003907c-4.1836-3.9727-5.5273-10.094-3.3945-15.457 1.6484-3.5078 3.8281-6.7383 6.4648-9.582l-0.86328-21.16v-0.003907c-0.17188-8.8398-3.4062-17.348-9.1523-24.066l-35-36.453-21.539 40.652c0.48438 14.375 3.9297 39.953 5.3828 50.562 6.5977 2.3477 12.219 6.8359 15.965 12.75 3.7461 5.9141 5.4062 12.91 4.7148 19.879-0.61328 3.4883-3.2344 6.2812-6.6797 7.1094-10.664 1.8438-21.484 2.6719-32.305 2.4766h-9.9062-0.003906c-6.75-0.25-12.387-5.2305-13.461-11.902l-18.684-122.77c-24.73 3.543-49.711 5.0195-74.688 4.418-29.617 0-58.746-1.1289-72.152-1.7773-1.3242 11.367-1.5234 22.84-0.59375 34.246 0 0.32422 0.32422 1.5078 0.48438 2.2617l19.277 58.262c5.4961 2.5977 10.199 6.6211 13.613 11.648 3.418 5.0273 5.4297 10.875 5.8281 16.941-0.015625 2.3242-0.94141 4.5508-2.5859 6.1953-1.5117 1.5469-3.5469 2.4688-5.707 2.582l-36.508 0.80859c-7.3164 0.09375-13.492-5.4258-14.215-12.707l-1.293-11.094-29.992-54.922c-0.88281-1.5547-1.5039-3.25-1.832-5.0078l-5.3828-30.422-25.633 29.184-1.9375 49c5.5312 2.6797 10.141 6.9492 13.23 12.266 3.0859 5.3125 4.5195 11.43 4.1094 17.566-0.40625 3.3398-2.6523 6.1719-5.8164 7.3203-8.5195 2.1992-17.328 3.0742-26.117 2.5859-6.0312 0-11.898 0-15.777-0.32422-7.3945-0.28125-13.293-6.2734-13.461-13.676l-2.1523-83.676c0-3.2852 0-11.578 38.285-63.484-1.3008-16.555-3.8359-32.988-7.5938-49.164-0.5-2.3203-0.78906-4.6797-0.85938-7.0547-2.0703 2.4219-5.1094 3.8047-8.293 3.7695-5.1836 0.11328-9.707-3.4844-10.77-8.5586-0.58594-2.3164-0.96484-4.6758-1.1328-7.0547-5.3828-85.238 84.863-93.637 88.684-93.961h0.003906c14.066-2.0039 28.273-2.8867 42.484-2.6406 35.512 0.54688 70.977 2.957 106.24 7.2148l70 2.3711c17.23-10.5 32.953-41.73 36.184-49.484 7.4375-18.805 19.582-35.379 35.27-48.141-4.3164-2.1562-9.0664-3.2969-13.895-3.3359-10.688 0.64453-20.961 4.3867-29.559 10.77-9.5391 10.125-20.406 18.91-32.309 26.113-3.0586 1.9727-7.0156 1.8672-9.9609-0.26953-3.1055-2.1602-4.4375-6.0898-3.2852-9.6914 5.2148-20.109 17.605-37.613 34.84-49.215-11.41 3.668-22.273 8.8477-32.309 15.398-3.5781 2.4414-8.4062 1.8867-11.336-1.3008-2.9336-3.1875-3.082-8.043-0.34766-11.406 23.047-28.055 48.137-42.27 74.684-42.27 37.152 0 65.422 28.27 75.062 39.363 4.2812-1.4453 8.7773-2.1562 13.297-2.1016 2.125 0.027343 4.2461 0.17188 6.3555 0.42969 2.8398 0.37891 5.625 1.1055 8.293 2.1562 3.1602 1.0391 6.4727 1.5469 9.8008 1.5078 5.5234-0.042969 10.996-1.082 16.152-3.0703 3.5547-1.5234 7.6875-0.53906 10.176 2.4219 2.3008 2.8086 2.6641 6.7305 0.91797 9.9102-6.0781 8.5703-13.758 15.887-22.617 21.539l-0.59375 0.42969c6.3555 10.125 30.371 30.691 49 45.176 2.6602 2.0625 4.6094 4.9062 5.5742 8.1289 0.96484 3.2266 0.89844 6.6719-0.1875 9.8555 2.5273 5.0508 2.9727 10.891 1.2383 16.262z"/>
  <use x="70" y="640.769531" xlink:href="#v"/>
  <use x="89.757812" y="640.769531" xlink:href="#b"/>
  <use x="103.035156" y="640.769531" xlink:href="#a"/>
  <use x="121.296875" y="640.769531" xlink:href="#h"/>
  <use x="139.464844" y="640.769531" xlink:href="#d"/>
  <use x="152.332031" y="640.769531" xlink:href="#a"/>
  <use x="170.59375" y="640.769531" xlink:href="#g"/>
  <use x="199.238281" y="640.769531" xlink:href="#f"/>
  <use x="218.511719" y="640.769531" xlink:href="#k"/>
  <use x="245.433594" y="640.769531" xlink:href="#j"/>
  <use x="265.953125" y="640.769531" xlink:href="#a"/>
  <use x="284.214844" y="640.769531" xlink:href="#b"/>
  <use x="297.492188" y="640.769531" xlink:href="#c"/>
  <use x="316.660156" y="640.769531" xlink:href="#g"/>
  <use x="345.304688" y="640.769531" xlink:href="#u"/>
  <use x="362.460937" y="640.769531" xlink:href="#h"/>
  <use x="380.628906" y="640.769531" xlink:href="#i"/>
  <use x="398.53125" y="640.769531" xlink:href="#a"/>
  <use x="416.792969" y="640.769531" xlink:href="#c"/>
  <use x="435.960938" y="640.769531" xlink:href="#f"/>
  <use x="455.230469" y="640.769531" xlink:href="#b"/>
  <use x="468.507812" y="640.769531" xlink:href="#t"/>
  <use x="477.738281" y="640.769531" xlink:href="#c"/>
  <use x="496.90625" y="640.769531" xlink:href="#i"/>
  <use x="70" y="667.691406" xlink:href="#s"/>
  <use x="81.714844" y="667.691406" xlink:href="#b"/>
  <use x="94.992188" y="667.691406" xlink:href="#e"/>
  <use x="113.488281" y="667.691406" xlink:href="#r"/>
  <use x="150.914062" y="667.691406" xlink:href="#d"/>
  <use x="163.785156" y="667.691406" xlink:href="#q"/>
  <use x="182.949219" y="667.691406" xlink:href="#a"/>
  <use x="210.582031" y="667.691406" xlink:href="#p"/>
  <use x="233.117188" y="667.691406" xlink:href="#e"/>
  <use x="251.613281" y="667.691406" xlink:href="#o"/>
  <use x="270.78125" y="667.691406" xlink:href="#c"/>
  <use x="299.320312" y="667.691406" xlink:href="#n"/>
  <use x="319.050781" y="667.691406" xlink:href="#b"/>
  <use x="332.328125" y="667.691406" xlink:href="#e"/>
  <use x="350.824219" y="667.691406" xlink:href="#m"/>
  <use x="360.054688" y="667.691406" xlink:href="#a"/>
  <use x="378.3125" y="667.691406" xlink:href="#l"/>
  <use x="394.273438" y="667.691406" xlink:href="#d"/>
 </g>
</svg>
