<?xml version="1.0" encoding="UTF-8"?>
<svg width="700pt" height="700pt" version="1.1" viewBox="0 0 700 700" xmlns="http://www.w3.org/2000/svg" xmlns:xlink="http://www.w3.org/1999/xlink">
 <defs>
  <symbol id="k" overflow="visible">
   <path d="m29.312-1.75c-1.5117 0.78125-3.0898 1.3711-4.7344 1.7656-1.6367 0.40625-3.3398 0.60938-5.1094 0.60938-5.3125 0-9.5273-1.4844-12.641-4.4531-3.1055-2.9688-4.6562-7-4.6562-12.094s1.5508-9.125 4.6562-12.094c3.1133-2.9688 7.3281-4.4531 12.641-4.4531 1.7695 0 3.4727 0.19922 5.1094 0.59375 1.6445 0.39844 3.2227 0.99219 4.7344 1.7812v6.5938c-1.5312-1.0391-3.0391-1.8008-4.5156-2.2812-1.4805-0.48828-3.0391-0.73438-4.6719-0.73438-2.9375 0-5.2461 0.94531-6.9219 2.8281-1.6797 1.875-2.5156 4.4648-2.5156 7.7656 0 3.293 0.83594 5.8828 2.5156 7.7656 1.6758 1.875 3.9844 2.8125 6.9219 2.8125 1.6328 0 3.1914-0.23828 4.6719-0.71875 1.4766-0.48828 2.9844-1.2539 4.5156-2.2969z"/>
  </symbol>
  <symbol id="c" overflow="visible">
   <path d="m21.453-17.406c-0.67969-0.3125-1.3516-0.53906-2.0156-0.6875-0.65625-0.15625-1.3203-0.23438-1.9844-0.23438-1.9688 0-3.4844 0.63281-4.5469 1.8906-1.0547 1.2617-1.5781 3.0703-1.5781 5.4219v11.016h-7.6562v-23.922h7.6562v3.9219c0.97656-1.5625 2.1016-2.7031 3.375-3.4219 1.2812-0.71875 2.8125-1.0781 4.5938-1.0781 0.25 0 0.52344 0.011719 0.82812 0.03125 0.30078 0.023438 0.73438 0.070312 1.2969 0.14062z"/>
  </symbol>
  <symbol id="b" overflow="visible">
   <path d="m27.562-12.031v2.1875h-17.891c0.1875 1.793 0.83203 3.1367 1.9375 4.0312 1.1133 0.89844 2.6719 1.3438 4.6719 1.3438 1.6016 0 3.25-0.23438 4.9375-0.70312 1.6875-0.47656 3.4219-1.2031 5.2031-2.1719v5.8906c-1.8047 0.6875-3.6094 1.2031-5.4219 1.5469-1.8125 0.35156-3.6211 0.53125-5.4219 0.53125-4.3359 0-7.7031-1.0977-10.109-3.2969-2.3984-2.207-3.5938-5.2969-3.5938-9.2656 0-3.9062 1.1758-6.9727 3.5312-9.2031 2.3633-2.2383 5.6094-3.3594 9.7344-3.3594 3.7578 0 6.7695 1.1367 9.0312 3.4062 2.2578 2.2617 3.3906 5.2812 3.3906 9.0625zm-7.8594-2.5312c0-1.457-0.42969-2.6289-1.2812-3.5156-0.84375-0.89453-1.9492-1.3438-3.3125-1.3438-1.4922 0-2.6992 0.41797-3.625 1.25-0.91797 0.83594-1.4922 2.0391-1.7188 3.6094z"/>
  </symbol>
  <symbol id="j" overflow="visible">
   <path d="m14.391-10.766c-1.5938 0-2.793 0.27344-3.5938 0.8125-0.80469 0.54297-1.2031 1.3398-1.2031 2.3906 0 0.96875 0.32031 1.7305 0.96875 2.2812 0.64453 0.54297 1.5469 0.8125 2.7031 0.8125 1.4375 0 2.6445-0.51562 3.625-1.5469 0.98828-1.0312 1.4844-2.3203 1.4844-3.875v-0.875zm11.688-2.8906v13.656h-7.7031v-3.5469c-1.0312 1.4492-2.1875 2.5078-3.4688 3.1719s-2.8398 1-4.6719 1c-2.4805 0-4.4961-0.72266-6.0469-2.1719-1.543-1.4453-2.3125-3.3203-2.3125-5.625 0-2.8125 0.96094-4.8672 2.8906-6.1719 1.9375-1.3125 4.9688-1.9688 9.0938-1.9688h4.5156v-0.60938c0-1.207-0.48047-2.0938-1.4375-2.6562-0.94922-0.5625-2.4375-0.84375-4.4688-0.84375-1.6367 0-3.1562 0.16797-4.5625 0.5-1.4062 0.32422-2.7188 0.8125-3.9375 1.4688v-5.8281c1.6445-0.40625 3.2891-0.70703 4.9375-0.90625 1.6562-0.20703 3.3047-0.3125 4.9531-0.3125 4.3203 0 7.4375 0.85547 9.3438 2.5625 1.9141 1.6992 2.875 4.4609 2.875 8.2812z"/>
  </symbol>
  <symbol id="i" overflow="visible">
   <path d="m12.031-30.719v6.7969h7.875v5.4688h-7.875v10.141c0 1.1172 0.21875 1.8711 0.65625 2.2656 0.4375 0.38672 1.3125 0.57812 2.625 0.57812h3.9375v5.4688h-6.5625c-3.0234 0-5.1641-0.62891-6.4219-1.8906-1.2617-1.2578-1.8906-3.3984-1.8906-6.4219v-10.141h-3.7969v-5.4688h3.7969v-6.7969z"/>
  </symbol>
  <symbol id="h" overflow="visible">
   <path d="m19.953-20.422v-12.812h7.6875v33.234h-7.6875v-3.4531c-1.0547 1.4062-2.2148 2.4375-3.4844 3.0938-1.2734 0.65625-2.7422 0.98438-4.4062 0.98438-2.9492 0-5.3711-1.1719-7.2656-3.5156-1.8867-2.3438-2.8281-5.3594-2.8281-9.0469s0.94141-6.7031 2.8281-9.0469c1.8945-2.3438 4.3164-3.5156 7.2656-3.5156 1.6562 0 3.1172 0.33594 4.3906 1 1.2812 0.65625 2.4453 1.6836 3.5 3.0781zm-5.0469 15.484c1.6445 0 2.8945-0.59766 3.75-1.7969 0.86328-1.1953 1.2969-2.9297 1.2969-5.2031 0-2.2812-0.43359-4.0195-1.2969-5.2188-0.85547-1.1953-2.1055-1.7969-3.75-1.7969-1.625 0-2.8711 0.60156-3.7344 1.7969-0.85547 1.1992-1.2812 2.9375-1.2812 5.2188 0 2.2734 0.42578 4.0078 1.2812 5.2031 0.86328 1.1992 2.1094 1.7969 3.7344 1.7969z"/>
  </symbol>
  <symbol id="a" overflow="visible">
   <path d="m16.406-4.9375c1.6328 0 2.8828-0.59766 3.75-1.7969 0.86328-1.1953 1.2969-2.9297 1.2969-5.2031 0-2.2812-0.43359-4.0195-1.2969-5.2188-0.86719-1.1953-2.1172-1.7969-3.75-1.7969-1.6367 0-2.8906 0.60547-3.7656 1.8125-0.875 1.1992-1.3125 2.9336-1.3125 5.2031 0 2.2617 0.4375 3.9961 1.3125 5.2031 0.875 1.1992 2.1289 1.7969 3.7656 1.7969zm-5.0781-15.484c1.0508-1.3945 2.2188-2.4219 3.5-3.0781 1.2812-0.66406 2.7539-1 4.4219-1 2.9453 0 5.3672 1.1719 7.2656 3.5156 1.8945 2.3438 2.8438 5.3594 2.8438 9.0469s-0.94922 6.7031-2.8438 9.0469c-1.8984 2.3438-4.3203 3.5156-7.2656 3.5156-1.668 0-3.1406-0.33594-4.4219-1s-2.4492-1.6914-3.5-3.0781v3.4531h-7.6562v-33.234h7.6562z"/>
  </symbol>
  <symbol id="g" overflow="visible">
   <path d="m0.53125-23.922h7.6562l6.4219 16.234 5.4688-16.234h7.6562l-10.062 26.188c-1.0117 2.6641-2.1953 4.5234-3.5469 5.5781-1.3438 1.0625-3.1211 1.5938-5.3281 1.5938h-4.4219v-5.0156h2.3906c1.3008 0 2.2422-0.21094 2.8281-0.625 0.59375-0.40625 1.0547-1.1484 1.3906-2.2188l0.20312-0.65625z"/>
  </symbol>
  <symbol id="f" overflow="visible">
   <path d="m0.21875-31.891h29.391v6.2188h-10.578v25.672h-8.2188v-25.672h-10.594z"/>
  </symbol>
  <symbol id="e" overflow="visible">
   <path d="m3.4219-9.3125v-14.609h7.6875v2.3906c0 1.293-0.011719 2.918-0.03125 4.875-0.011719 1.9609-0.015625 3.2656-0.015625 3.9219 0 1.9297 0.046875 3.3125 0.14062 4.1562 0.10156 0.84375 0.28125 1.4609 0.53125 1.8438 0.3125 0.5 0.71875 0.88672 1.2188 1.1562 0.50781 0.27344 1.0938 0.40625 1.75 0.40625 1.5938 0 2.8438-0.60938 3.75-1.8281 0.91406-1.2266 1.375-2.9297 1.375-5.1094v-11.812h7.6406v23.922h-7.6406v-3.4531c-1.1562 1.3867-2.3828 2.4141-3.6719 3.0781-1.2812 0.66406-2.6992 1-4.25 1-2.7734 0-4.8828-0.84766-6.3281-2.5469-1.4375-1.6953-2.1562-4.1602-2.1562-7.3906z"/>
  </symbol>
  <symbol id="d" overflow="visible">
   <path d="m3.6719-33.234h7.6562v18.094l8.7969-8.7812h8.8906l-11.688 10.969 12.594 12.953h-9.2656l-9.3281-9.9688v9.9688h-7.6562z"/>
  </symbol>
 </defs>
 <g>
  <path d="m554.29 335.92c-25.539-28.344-43.562-62.641-52.422-99.75l-20.789-87.422h-55.379l-64.391 179.51c-13.395 37.156-14.973 77.547-4.5234 115.64 5.6484 20.746 18.027 39.031 35.191 51.977l15.508 11.629c15.164 11.324 33.57 17.461 52.5 17.5h53.375c21.66 0.007812 42.551-8.0273 58.625-22.547l0.92578-0.875c19.051-17.223 29.93-41.695 29.953-67.375v-10.754c0.011719-21.66-8.0195-42.551-22.531-58.625zm-158.09-54.25 36.75-102.44c1.9141-5.3281 6.0391-9.5703 11.316-11.625s11.184-1.7266 16.199 0.90234c5.0156 2.6328 8.6445 7.3047 9.9531 12.816l14 58.914v-0.003907c3.5195 14.758 8.3984 29.152 14.578 43.008 2.3008 5.3008 2.9609 11.172 1.9023 16.852-1.0625 5.6797-3.8008 10.914-7.8633 15.023-5.4805 5.5117-12.93 8.6172-20.703 8.6289h-45.098c-7.0625 0.003906-13.887-2.5742-19.188-7.2461l-3.6758-3.2188c-4.3984-3.832-7.5312-8.9062-8.9922-14.555-1.457-5.6445-1.1719-11.602 0.82031-17.086zm188.78 152.43c-0.019531 20.762-8.793 40.551-24.168 54.504l-0.95312 0.875c-12.801 11.613-29.473 18.035-46.758 18.016h-53.535c-15.141-0.03125-29.867-4.9414-42-14l-15.52-11.637c-13.785-10.305-23.793-24.859-28.484-41.414-4.0859-14.676-6.2695-29.82-6.4922-45.055 0.035157-10.133 2.9062-20.051 8.2891-28.633 5.3867-8.582 13.07-15.484 22.18-19.922 7.2305-3.6719 15.227-5.5859 23.336-5.5898h55.387c15.516 0 30.941 2.3633 45.746 7l8.6367 2.6953c12.039 3.7656 22.852 10.691 31.309 20.055l4.9883 5.5391h-0.003906c11.621 12.859 18.047 29.578 18.035 46.91z"/>
  <path d="m242.16 35c-5.4492-0.011719-10.27 3.5391-11.871 8.75l-27.293 87.5h26.066l25.016-80.098c1.1836-3.7852 0.49219-7.9062-1.8633-11.098-2.3555-3.1914-6.0898-5.0664-10.055-5.0547z"/>
  <path d="m372.59 51.152c1.0938-3.1797 0.85156-6.668-0.66797-9.668s-4.1875-5.2578-7.3984-6.2578c-3.207-1-6.6875-0.66016-9.6406 0.94531-2.957 1.6055-5.1328 4.3398-6.043 7.5781l-27.324 87.5h26.066z"/>
  <path d="m499.05 51.152c1.9414-6.5273-1.7266-13.398-8.2227-15.426-6.5-2.0234-13.422 1.5508-15.531 8.0234l-27.293 87.5h26.066z"/>
  <path d="m381.5 509.87c-20.207-15.211-34.801-36.691-41.492-61.082-11.48-41.641-9.7891-85.812 4.8477-126.45l62.238-173.59h-100.14l-64.391 179.51c-13.395 37.156-14.973 77.547-4.5156 115.64 5.6445 20.75 18.02 39.031 35.184 51.977l15.516 11.629c15.164 11.328 33.574 17.465 52.5 17.5h60.82c-1.75-1.1367-3.4375-2.2656-5.082-3.5zm-98.988-60.996c-11.488-41.656-9.8008-85.848 4.8281-126.51l16.477 5.9141c-13.395 37.16-14.973 77.551-4.5156 115.64zm41.465 61.023c-9.1523-6.875-17.215-15.094-23.922-24.371l14.184-10.254c5.6719 7.8594 12.5 14.812 20.258 20.625z"/>
  <path d="m419.61 303.36c2.1055 1.8633 4.8203 2.8906 7.6289 2.8867h45.098c3.0938-0.007812 6.0586-1.25 8.2344-3.4492 3.2891-3.2578 4.2578-8.1875 2.4492-12.449-6.6211-14.848-11.848-30.273-15.617-46.086l-14-58.914c-0.21484-0.89453-0.99219-1.5391-1.9102-1.5898-0.91406-0.046875-1.7578 0.50781-2.0703 1.3711l-36.75 102.38c-1.6211 4.4609-0.32812 9.4609 3.2461 12.582z"/>
  <path d="m548.96 382.73c-6.3555-7.043-14.484-12.254-23.535-15.086l-8.6367-2.7031c-13.117-4.1055-26.781-6.1914-40.523-6.1875h-55.387c-5.2578 0-10.445 1.2227-15.145 3.5781-6.2539 2.9375-11.551 7.5742-15.285 13.383-3.7344 5.8086-5.7578 12.551-5.8398 19.457 0.20312 13.727 2.1719 27.375 5.8555 40.598 3.6562 12.836 11.426 24.117 22.117 32.105l15.508 11.629c9.0977 6.7891 20.145 10.473 31.5 10.5h53.516c12.938 0.003906 25.414-4.8086 35-13.5l0.94531-0.875c11.703-10.637 18.375-25.715 18.375-41.527v-10.648c0.007813-13-4.8086-25.539-13.52-35.184z"/>
  <path d="m262.73 509.87c-20.203-15.215-34.793-36.695-41.492-61.082-11.469-41.641-9.7773-85.809 4.8477-126.45l62.273-173.59h-107.68l-64.383 179.51c-13.395 37.156-14.973 77.547-4.5234 115.64 5.6562 20.75 18.043 39.035 35.219 51.977l15.48 11.629c15.164 11.324 33.57 17.461 52.5 17.5h9.0195c-1.75-1.1367-3.4375-2.2656-5.0938-3.5l-15.504-11.629c-20.219-15.207-34.824-36.688-41.527-61.082-4.0469-14.789-6.4688-29.973-7.2266-45.281l17.5-0.875c0.68359 13.941 2.8789 27.77 6.5547 41.238 5.6406 20.746 18.016 39.027 35.184 51.973l15.496 11.656c15.16 11.328 33.57 17.465 52.5 17.5h1.4609c-1.75-1.1367-3.4492-2.2656-5.0938-3.5zm-46.137-326.57 16.477 5.9141-8.8047 24.543-16.477-5.9141zm-33.391 144.95-16.477-5.9141 31.188-86.969 16.469 5.9141z"/>
  <use x="70" y="691.25" xlink:href="#k"/>
  <use x="102.109375" y="691.25" xlink:href="#c"/>
  <use x="123.683594" y="691.25" xlink:href="#b"/>
  <use x="153.355469" y="691.25" xlink:href="#j"/>
  <use x="182.878906" y="691.25" xlink:href="#i"/>
  <use x="203.792969" y="691.25" xlink:href="#b"/>
  <use x="233.464844" y="691.25" xlink:href="#h"/>
  <use x="280.011719" y="691.25" xlink:href="#a"/>
  <use x="311.328125" y="691.25" xlink:href="#g"/>
  <use x="355.078125" y="691.25" xlink:href="#f"/>
  <use x="384.921875" y="691.25" xlink:href="#e"/>
  <use x="416.070312" y="691.25" xlink:href="#c"/>
  <use x="437.644531" y="691.25" xlink:href="#d"/>
  <use x="466.742188" y="691.25" xlink:href="#d"/>
  <use x="495.835938" y="691.25" xlink:href="#e"/>
  <use x="526.984375" y="691.25" xlink:href="#a"/>
 </g>
</svg>
